#N canvas 877 50 908 878 8;
#X obj 22 13 py4pd -lib pd-freesound;
#X obj 139 209 freesound.download;
#X msg 139 140 613846;
#X obj 31 117 freesound.search;
#X obj 13 294 tabplay~ freesound;
#X obj 139 234 freesound.readmp3;
#X obj 13 245 bng 15 250 50 0 empty empty empty 0 -8 0 8 #fcfcfc #000000 #000000;
#X obj 13 393 dac~;
#X obj 22 31 py4pd -lib py4pd;
#N canvas 0 50 450 250 (subpatch) 0;
#X array freesound 528896 float 2;
#X coords 0 1 528896 -1 130 40 1 0 0;
#X restore 136 277 graph;
#X obj 31 150 py.nth None 8;
#X obj 13 360 else/plate.rev~;
#X msg 31 83 bird;
#X connect 1 0 5 0;
#X connect 2 0 1 0;
#X connect 3 0 10 0;
#X connect 4 0 11 0;
#X connect 6 0 4 0;
#X connect 10 0 1 0;
#X connect 11 0 7 0;
#X connect 11 1 7 1;
#X connect 12 0 3 0;
