#N canvas 734 363 451 336 8;
#X obj 22 4 py4pd -lib pd_freesound;
#X obj 160 4 py4pd -lib py4pd;
#X msg 36 115 get id;
#X msg 110 137 download \$1, f 18;
#X obj 22 69 secrets;
#N canvas 0 50 450 250 (subpatch) 0;
#X array freesound 7680 float 4;
#X coords 0 1 7679 -1 255 51 1;
#X restore 174 232 graph;
#X obj 22 266 symbol;
#X msg 22 288 read -resize \$1 freesound;
#X obj 22 305 soundfiler;
#X obj 334 188 tabplay~ freesound;
#X obj 334 210 dac~;
#X obj 334 145 bng 39 250 50 0 empty empty empty 0 -8 0 8 #fcfcfc #000000 #000000;
#X text 62 68 <= Change to mysecrets;
#X obj 22 246 route sound;
#X obj 22 227 py2pd;
#X listbox 110 114 14 0 0 0 - - - 12;
#X obj 22 30 bng 35 250 50 0 empty empty empty 0 -8 0 8 #fcfcfc #000000 #000000;
#X obj 22 204 freesound;
#X text 62 39 1) Login;
#X text 212 115 Id number;
#X text 376 144 4);
#N canvas 6 28 951 486 config 0;
#X obj 7 51 py4pd;
#X msg 7 7 pip install git+https://github.com/MTG/freesound-python;
#X msg 16 26 pip install librosa;
#X msg 123 27 pip install requests-oauthlib;
#X connect 1 0 0 0;
#X connect 2 0 0 0;
#X connect 3 0 0 0;
#X restore 247 4 pd config;
#N canvas 1282 23 632 1016 Ordering 0;
#X msg 156 3 browse https://freesound.org/docs/api/analysis_docs.html, f 50;
#X obj 156 34 pdcontrol;
#X obj 6 157 s searches-var;
#X msg 48 127 clear;
#X msg 36 54 search;
#X msg 6 4 target rhythm.onset_count 1;
#X text 210 33 To get all the keywords visit the Freesound Docs., f 30;
#X msg 53 82 query metal;
#X msg 31 29 filter duration 0 1;
#X connect 0 0 1 0;
#X connect 3 0 2 0;
#X connect 4 0 2 0;
#X connect 5 0 2 0;
#X connect 7 0 2 0;
#X connect 8 0 2 0;
#X restore 252 41 pd Ordering the search;
#X obj 107 172 r searches-var;
#X obj 110 94 bng 15 250 50 0 empty empty empty 0 -8 0 8 #fcfcfc #000000 #000000;
#X text 236 41 1);
#N canvas 1443 23 471 1016 Get 0;
#X obj 6 106 s searches-var;
#X listbox 6 54 14 0 0 0 - - - 12;
#X msg 6 76 similar \$1;
#X obj 6 24 bng 15 250 50 0 empty empty empty 0 -8 0 8 #fcfcfc #000000 #000000;
#X connect 1 0 2 0;
#X connect 2 0 0 0;
#X connect 3 0 1 0;
#X restore 252 66 pd Get Similar Sounds;
#X text 236 66 2);
#X msg 40 137 get duration;
#X msg 228 172 remove \$1;
#X msg 228 151 514414;
#X msg 171 82 664050;
#X connect 2 0 17 0;
#X connect 3 0 17 0;
#X connect 4 0 17 0;
#X connect 6 0 7 0;
#X connect 7 0 8 0;
#X connect 9 0 10 0;
#X connect 9 0 10 1;
#X connect 11 0 9 0;
#X connect 13 0 6 0;
#X connect 14 0 13 0;
#X connect 15 0 3 0;
#X connect 16 0 4 0;
#X connect 17 0 14 0;
#X connect 23 0 17 0;
#X connect 24 0 15 0;
#X connect 28 0 17 0;
#X connect 29 0 17 0;
#X connect 30 0 29 0;
#X connect 31 0 15 0;
