#N canvas 6 31 951 1011 8;
#X obj 22 4 py4pd -lib py4pd-freesound;
#X obj 22 31 py4pd -lib py4pd;
#X obj 378 56 py4pd;
#X msg 378 13 pip install git+https://github.com/MTG/freesound-python;
#X obj 22 260 freesound;
#X msg 46 119 get id;
#X listbox 347 109 14 0 0 0 - - - 24;
#X text 345 90 search query;
#X msg 347 148 search \$1;
#X msg 108 144 download \$1, f 18;
#X obj 108 118 nbx 8 21 -1e+37 1e+37 0 0 empty empty empty 0 -8 0 10 #e4e4e4 #373737 #373737 0 256;
#X msg 347 183 filter duration 0.2 1;
#X obj 22 63 secrets;
#N canvas 0 50 450 250 (subpatch) 0;
#X array freesound 162573 float 4;
#X coords 0 1 162572 -1 255 51 1;
#X restore 339 315 graph;
#X obj 22 436 symbol;
#X msg 22 475 read -resize \$1 freesound;
#X obj 22 503 soundfiler;
#X obj 116 315 tabplay~ freesound;
#X obj 116 355 dac~;
#X obj 116 260 bng 39 250 50 0 empty empty empty 0 -8 0 8 #fcfcfc #000000 #000000;
#X text 87 62 <= Change to mysecrets;
#X obj 22 345 route sound;
#X text 203 118 Sound Id;
#X text 428 108 1;
#X text 46 90 2;
#X text 108 90 3;
#X text 161 259 4;
#X obj 22 303 py2pd;
#X obj 269 64 bng 25 250 50 0 empty empty empty 17 7 0 10 #e4e4e4 #000000 #373737;
#X connect 3 0 2 0;
#X connect 4 0 27 0;
#X connect 5 0 4 0;
#X connect 6 0 8 0;
#X connect 8 0 4 0;
#X connect 9 0 4 0;
#X connect 10 0 9 0;
#X connect 11 0 4 0;
#X connect 12 0 4 0;
#X connect 14 0 15 0;
#X connect 15 0 16 0;
#X connect 17 0 18 0;
#X connect 17 0 18 1;
#X connect 19 0 17 0;
#X connect 21 0 14 0;
#X connect 27 0 21 0;
#X connect 28 0 10 0;
