#N canvas 1063 28 831 486 8;
#X obj 22 4 py4pd -lib py4pd-freesound;
#X obj 160 4 py4pd -lib py4pd;
#X obj 331 47 py4pd;
#X msg 331 3 pip install git+https://github.com/MTG/freesound-python;
#X msg 46 119 get id;
#X listbox 347 110 14 0 0 0 - - - 24;
#X text 345 90 search query;
#X msg 166 142 download \$1, f 18;
#X msg 345 192 filter duration 0.2 1;
#X obj 22 69 secrets;
#N canvas 0 50 450 250 (subpatch) 0;
#X array freesound 258 float 4;
#X coords 0 1 257 -1 255 51 1;
#X restore 188 258 graph;
#X obj 22 365 symbol;
#X msg 22 387 read -resize \$1 freesound;
#X obj 22 415 soundfiler;
#X obj 116 333 tabplay~ freesound;
#X obj 116 355 dac~;
#X obj 116 260 bng 39 250 50 0 empty empty empty 0 -8 0 8 #fcfcfc #000000 #000000;
#X text 62 68 <= Change to mysecrets;
#X obj 22 345 route sound;
#X text 261 116 Sound Id;
#X text 430 75 1;
#X text 161 259 4;
#X obj 22 303 py2pd;
#X msg 340 22 pip install librosa;
#X msg 447 23 pip install requests-oauthlib;
#X msg 347 148 search query \$1;
#X msg 171 170 search freq 440;
#X listbox 166 84 8 0 0 0 - - - 24;
#X obj 22 260 f.main;
#X obj 22 30 bng 35 250 50 0 empty empty empty 0 -8 0 8 #fcfcfc #000000 #000000;
#N canvas 6 28 1071 1012 (subpatch) 1;
#X obj 38 187 f.paramsearch;
#X msg 55 58 search;
#X text 235 12 Check the keywords in the website;
#X obj 241 84 pdcontrol;
#X msg 109 114 download \$1, f 18;
#X listbox 109 76 7 0 0 0 - - - 24;
#X obj 38 250 symbol;
#X obj 38 300 soundfiler;
#X obj 38 230 route sound;
#X obj 38 210 py2pd;
#X msg 38 272 read -resize \$1 params;
#N canvas 0 50 450 250 (subpatch) 0;
#X array params 966002 float 2;
#X coords 0 1 966002 -1 276 56 1;
#X restore 174 183 graph;
#X obj 174 306 dac~;
#X obj 174 243 bng 39 250 50 0 empty empty empty 0 -8 0 8 #fcfcfc #000000 #000000;
#X obj 174 284 tabplay~ params;
#X msg 38 10 add lowlevel.pitch.mean 400 500;
#X obj 109 54 bng 15 250 50 0 empty empty empty 0 -8 0 8 #fcfcfc #000000 #000000;
#X msg 112 140 get duration;
#X msg 47 31 add sfx.effective_duration 0.3 0.5;
#X msg 68 92 clear;
#X msg 241 42 browse https://freesound.org/docs/api/analysis_docs.html, f 42;
#X connect 0 0 9 0;
#X connect 1 0 0 0;
#X connect 4 0 0 0;
#X connect 5 0 4 0;
#X connect 6 0 10 0;
#X connect 8 0 6 0;
#X connect 9 0 8 0;
#X connect 10 0 7 0;
#X connect 13 0 14 0;
#X connect 14 0 12 0;
#X connect 14 0 12 1;
#X connect 15 0 0 0;
#X connect 16 0 5 0;
#X connect 17 0 0 0;
#X connect 18 0 0 0;
#X connect 19 0 0 0;
#X connect 20 0 3 0;
#X restore 286 338 pd;
#X connect 3 0 2 0;
#X connect 4 0 28 0;
#X connect 5 0 25 0;
#X connect 7 0 28 0;
#X connect 8 0 28 0;
#X connect 9 0 28 0;
#X connect 11 0 12 0;
#X connect 12 0 13 0;
#X connect 14 0 15 0;
#X connect 14 0 15 1;
#X connect 16 0 14 0;
#X connect 18 0 11 0;
#X connect 22 0 18 0;
#X connect 23 0 2 0;
#X connect 24 0 2 0;
#X connect 25 0 28 0;
#X connect 26 0 28 0;
#X connect 27 0 7 0;
#X connect 28 0 22 0;
#X connect 29 0 9 0;
