#N canvas 6 554 951 486 8;
#X obj 22 4 py4pd -lib py4pd-freesound;
#X obj 160 4 py4pd -lib py4pd;
#X msg 36 115 get id;
#X msg 45 159 download \$1, f 18;
#X obj 22 69 secrets;
#N canvas 0 50 450 250 (subpatch) 0;
#X array freesound 188294 float 4;
#X coords 0 1 188293 -1 255 51 1;
#X restore 157 418 graph;
#X obj 22 396 symbol;
#X msg 22 418 read -resize \$1 freesound;
#X obj 22 435 soundfiler;
#X obj 159 357 tabplay~ freesound;
#X obj 159 379 dac~;
#X obj 159 314 bng 39 250 50 0 empty empty empty 0 -8 0 8 #fcfcfc #000000 #000000;
#X text 62 68 <= Change to mysecrets;
#X obj 22 376 route sound;
#X obj 22 357 py2pd;
#X listbox 45 136 14 0 0 0 - - - 12;
#X obj 22 30 bng 35 250 50 0 empty empty empty 0 -8 0 8 #fcfcfc #000000 #000000;
#X obj 22 260 freesound;
#X text 62 39 1) Login;
#X text 147 137 Id number;
#X text 201 313 4);
#N canvas 6 28 951 486 config 0;
#X obj 7 51 py4pd;
#X msg 7 7 pip install git+https://github.com/MTG/freesound-python;
#X msg 16 26 pip install librosa;
#X msg 123 27 pip install requests-oauthlib;
#X connect 1 0 0 0;
#X connect 2 0 0 0;
#X connect 3 0 0 0;
#X restore 247 4 pd config;
#N canvas 6 28 951 486 Ordering 1;
#X msg 205 147 browse https://freesound.org/docs/api/analysis_docs.html, f 50;
#X obj 205 178 pdcontrol;
#X obj 6 211 s searches-var;
#X msg 48 181 clear;
#X msg 36 90 search;
#X msg 32 67 filter duration 3 4;
#X msg 17 41 target sfx.inharmonicity 0.1;
#X msg 6 21 target rhythm.onset_count 1;
#X msg 53 118 query pd;
#X connect 0 0 1 0;
#X connect 3 0 2 0;
#X connect 4 0 2 0;
#X connect 5 0 2 0;
#X connect 6 0 2 0;
#X connect 7 0 2 0;
#X connect 8 0 2 0;
#X restore 253 33 pd Ordering the search;
#X obj 51 203 r searches-var;
#X obj 110 94 bng 15 250 50 0 empty empty empty 0 -8 0 8 #fcfcfc #000000 #000000;
#X connect 2 0 17 0;
#X connect 3 0 17 0;
#X connect 4 0 17 0;
#X connect 6 0 7 0;
#X connect 7 0 8 0;
#X connect 9 0 10 0;
#X connect 9 0 10 1;
#X connect 11 0 9 0;
#X connect 13 0 6 0;
#X connect 14 0 13 0;
#X connect 15 0 3 0;
#X connect 16 0 4 0;
#X connect 17 0 14 0;
#X connect 23 0 17 0;
#X connect 24 0 15 0;
