#N canvas 6 31 951 1011 8;
#X obj 22 13 py4pd -lib py4pd-freesound;
#X obj 22 31 py4pd -lib py4pd;
#X obj 160 32 py4pd;
#X msg 160 13 pip install git+https://github.com/MTG/freesound-python;
#X obj 22 260 freesound;
#X msg 34 119 get id;
#X listbox 232 80 14 0 0 0 - - - 24;
#X text 230 63 search query;
#X msg 232 119 search \$1;
#X msg 80 144 download \$1;
#X obj 80 118 nbx 8 18 -1e+37 1e+37 0 0 empty empty empty 0 -8 0 10 #e4e4e4 #373737 #373737 0 256;
#X msg 232 154 filter duration 0.2 1;
#X obj 22 63 secrets;
#N canvas 0 50 450 250 (subpatch) 0;
#X array freesound 79840 float 4;
#X coords 0 1 79839 -1 255 51 1;
#X restore 158 246 graph;
#X obj 80 101 bng 15 250 50 0 empty empty empty 0 -8 0 8 #fcfcfc #000000 #000000;
#X obj 22 281 py2pd;
#X obj 22 302 symbol;
#X msg 22 320 read -resize \$1 freesound;
#X obj 22 341 soundfiler;
#X obj 163 339 tabplay~ freesound;
#X obj 163 363 dac~;
#X obj 163 320 bng 15 250 50 0 empty empty empty 0 -8 0 8 #fcfcfc #000000 #000000;
#X connect 3 0 2 0;
#X connect 4 0 15 0;
#X connect 5 0 4 0;
#X connect 6 0 8 0;
#X connect 8 0 4 0;
#X connect 9 0 4 0;
#X connect 10 0 9 0;
#X connect 11 0 4 0;
#X connect 12 0 4 0;
#X connect 14 0 10 0;
#X connect 15 0 16 0;
#X connect 16 0 17 0;
#X connect 17 0 18 0;
#X connect 19 0 20 0;
#X connect 19 0 20 1;
#X connect 21 0 19 0;
