#N canvas 6 31 951 1011 8;
#X obj 22 13 py4pd -lib py4pd-freesound;
#X obj 22 31 py4pd -lib py4pd;
#X obj 160 32 py4pd;
#X msg 160 13 pip install git+https://github.com/MTG/freesound-python;
#X obj 21 360 freesound;
#X msg 33 219 get id;
#X listbox 231 180 14 0 0 0 - - - 24;
#X text 235 159 search query;
#X msg 231 219 search \$1;
#X msg 96 219 download \$1;
#X obj 96 182 nbx 4 18 -1e+37 1e+37 0 0 empty empty empty 0 -8 0 10 #e4e4e4 #373737 #373737 0 256;
#X msg 180 262 filter duration 0.2 1;
#X obj 21 163 secrets;
#X connect 3 0 2 0;
#X connect 5 0 4 0;
#X connect 6 0 8 0;
#X connect 8 0 4 0;
#X connect 9 0 4 0;
#X connect 10 0 9 0;
#X connect 11 0 4 0;
#X connect 12 0 4 0;
